<?xml version="1.0" encoding="UTF-8"?>
<svg xmlns="http://www.w3.org/2000/svg" xmlns:xlink="http://www.w3.org/1999/xlink" width="375pt" height="374.999991pt" viewBox="0 0 375 374.999991" version="1.2">
<defs>
<clipPath id="clip1">
  <path d="M 19 104.207031 L 104 104.207031 L 104 256.675781 L 19 256.675781 Z M 19 104.207031 "/>
</clipPath>
<clipPath id="clip2">
  <path d="M 271 104.207031 L 355.601562 104.207031 L 355.601562 256.675781 L 271 256.675781 Z M 271 104.207031 "/>
</clipPath>
<clipPath id="clip3">
  <path d="M 116 77 L 254 77 L 254 300 L 116 300 Z M 116 77 "/>
</clipPath>
<clipPath id="clip4">
  <path d="M 207.953125 61.898438 L 283.363281 98.578125 L 179.167969 312.8125 L 103.753906 276.136719 Z M 207.953125 61.898438 "/>
</clipPath>
<clipPath id="clip5">
  <path d="M 207.953125 61.898438 L 283.363281 98.578125 L 179.167969 312.8125 L 103.753906 276.136719 Z M 207.953125 61.898438 "/>
</clipPath>
</defs>
<g id="surface1">
<g clip-path="url(#clip1)" clip-rule="nonzero">
<path style=" stroke:none;fill-rule:nonzero;fill:rgb(20.779419%,49.01886%,92.939758%);fill-opacity:1;" d="M 91.894531 256.675781 L 22.253906 186.429688 C 18.988281 183.132812 18.988281 177.746094 22.253906 174.453125 L 91.878906 104.207031 L 103.753906 116.183594 L 40.0625 180.441406 L 103.769531 244.699219 Z M 91.894531 256.675781 "/>
</g>
<g clip-path="url(#clip2)" clip-rule="nonzero">
<path style=" stroke:none;fill-rule:nonzero;fill:rgb(20.779419%,49.01886%,92.939758%);fill-opacity:1;" d="M 283.097656 256.675781 L 352.738281 186.429688 C 356.003906 183.132812 356.003906 177.746094 352.738281 174.453125 L 283.113281 104.207031 L 271.238281 116.183594 L 334.929688 180.441406 L 271.222656 244.699219 Z M 283.097656 256.675781 "/>
</g>
<g clip-path="url(#clip3)" clip-rule="nonzero">
<g clip-path="url(#clip4)" clip-rule="nonzero">
<g clip-path="url(#clip5)" clip-rule="nonzero">
<path style=" stroke:none;fill-rule:evenodd;fill:rgb(20.779419%,49.01886%,92.939758%);fill-opacity:1;" d="M 240.824219 77.902344 C 240.339844 77.6875 239.722656 77.703125 239.496094 78.117188 C 238.527344 80.121094 237.59375 81.992188 236.667969 83.917969 L 235.863281 83.546875 C 235.984375 82.996094 235.980469 82.453125 235.929688 81.996094 C 235.859375 81.332031 235.5625 80.949219 235.074219 80.714844 C 234.585938 80.476562 234.039062 80.480469 233.472656 80.832031 C 232.90625 81.183594 232.246094 81.730469 231.871094 82.507812 C 231.492188 83.28125 231.46875 84.140625 231.542969 84.804688 C 231.613281 85.464844 231.949219 85.898438 232.4375 86.136719 C 232.925781 86.371094 233.433594 86.320312 234 85.96875 C 234.375 85.734375 234.789062 85.414062 235.140625 85 L 235.953125 85.417969 C 235.898438 85.527344 235.847656 85.640625 235.792969 85.753906 C 234.492188 88.300781 233.738281 89.609375 232.636719 91.480469 L 231.679688 91.039062 C 231.800781 90.492188 231.796875 89.945312 231.746094 89.488281 C 231.675781 88.828125 231.375 88.441406 230.890625 88.207031 C 230.402344 87.96875 229.855469 87.972656 229.289062 88.324219 C 228.722656 88.679688 228.0625 89.226562 227.683594 90 C 227.308594 90.777344 227.285156 91.632812 227.359375 92.296875 C 227.429688 92.960938 227.765625 93.390625 228.253906 93.628906 C 228.738281 93.863281 229.25 93.8125 229.816406 93.460938 C 230.191406 93.226562 230.605469 92.90625 230.953125 92.496094 L 231.785156 92.917969 C 231.722656 93.027344 231.679688 93.101562 231.613281 93.210938 C 230.371094 95.207031 229.007812 96.839844 227.460938 98.394531 C 227.429688 98.425781 227.402344 98.457031 227.371094 98.488281 L 226.269531 97.980469 C 226.394531 97.433594 226.390625 96.886719 226.339844 96.433594 C 226.265625 95.769531 225.96875 95.386719 225.480469 95.148438 C 224.996094 94.910156 224.449219 94.914062 223.882812 95.265625 C 223.316406 95.621094 222.65625 96.167969 222.277344 96.941406 C 221.902344 97.71875 221.878906 98.574219 221.953125 99.238281 C 222.023438 99.902344 222.359375 100.332031 222.84375 100.570312 C 223.332031 100.808594 223.839844 100.757812 224.40625 100.402344 C 224.78125 100.167969 225.199219 99.851562 225.546875 99.4375 L 226.089844 99.714844 C 225.171875 100.523438 224.203125 101.273438 223.351562 101.894531 C 222.214844 102.480469 222.515625 103.28125 223.015625 104.113281 C 224.652344 106.734375 225.355469 109.683594 223.96875 113.351562 L 173.722656 211.886719 C 164.925781 204.027344 165.054688 200.101562 167.992188 189.113281 C 168.800781 186.082031 164.230469 184.597656 161.65625 186.148438 C 150.402344 192.9375 153.078125 207.546875 151.566406 216.261719 C 149.976562 225.390625 137.976562 230.789062 132.363281 234.132812 C 128.847656 236.230469 125.011719 238.027344 121.445312 243.761719 C 112.523438 258.128906 115.382812 270.960938 126.304688 282.457031 C 132.160156 287.46875 142.066406 294.769531 157.695312 298.285156 C 169.246094 300.882812 177.441406 298.125 184.691406 293.179688 C 190.714844 289.074219 193.667969 281.496094 194.410156 273.777344 C 195.410156 263.359375 188.875 251.375 196.113281 241.46875 C 199.121094 237.355469 204.542969 235.53125 207.773438 231.59375 C 211.585938 226.9375 207.925781 217.96875 204.054688 220.515625 C 196.742188 226.300781 186.980469 221.695312 186.097656 220.441406 L 233.160156 119.609375 L 233.941406 118.003906 C 235.730469 115.773438 237.394531 113.457031 242.101562 113.34375 C 244.535156 112.710938 243 110.742188 243.269531 108.644531 C 243.292969 108.464844 243.324219 108.285156 243.351562 108.105469 L 243.835938 108.328125 C 243.726562 108.859375 243.730469 109.382812 243.777344 109.824219 C 243.851562 110.484375 244.125 110.917969 244.613281 111.15625 C 245.097656 111.390625 245.644531 111.390625 246.210938 111.035156 C 246.777344 110.683594 247.441406 110.136719 247.816406 109.363281 C 248.195312 108.585938 248.214844 107.730469 248.144531 107.066406 C 248.070312 106.402344 247.738281 105.96875 247.25 105.734375 C 246.761719 105.496094 246.277344 105.5 245.710938 105.851562 C 245.324219 106.09375 244.890625 106.425781 244.535156 106.863281 L 243.628906 106.398438 C 244.042969 104.066406 244.578125 101.730469 245.199219 99.820312 C 245.230469 99.707031 245.261719 99.59375 245.296875 99.484375 L 245.957031 99.789062 C 245.847656 100.320312 245.855469 100.84375 245.902344 101.28125 C 245.972656 101.945312 246.25 102.378906 246.734375 102.617188 C 247.222656 102.851562 247.769531 102.851562 248.335938 102.496094 C 248.902344 102.144531 249.5625 101.597656 249.941406 100.820312 C 250.316406 100.046875 250.339844 99.1875 250.265625 98.527344 C 250.195312 97.863281 249.859375 97.429688 249.371094 97.195312 C 248.886719 96.957031 248.398438 96.960938 247.832031 97.3125 C 247.445312 97.554688 247.011719 97.886719 246.65625 98.320312 L 245.808594 97.886719 C 246.5625 95.726562 247.550781 93.628906 248.4375 91.898438 C 248.496094 91.789062 248.554688 91.679688 248.613281 91.570312 L 249.492188 91.980469 C 249.382812 92.507812 249.386719 93.035156 249.433594 93.472656 C 249.507812 94.136719 249.78125 94.570312 250.269531 94.804688 C 250.753906 95.042969 251.300781 95.039062 251.867188 94.6875 C 252.433594 94.332031 253.09375 93.789062 253.472656 93.011719 C 253.847656 92.238281 253.871094 91.378906 253.800781 90.714844 C 253.726562 90.050781 253.390625 89.621094 252.90625 89.382812 C 252.417969 89.148438 251.933594 89.148438 251.367188 89.503906 C 250.976562 89.742188 250.546875 90.078125 250.191406 90.511719 L 249.359375 90.09375 C 249.851562 89.058594 250.308594 88.007812 250.703125 87.074219 C 251.039062 86.378906 250.859375 85.585938 249.84375 85.515625 C 245.648438 85.210938 244.011719 82.082031 241.351562 78.324219 C 241.238281 78.144531 241.046875 78 240.824219 77.902344 Z M 240.824219 77.902344 "/>
</g>
</g>
</g>
</g>
</svg>
